<mxfile host="app.diagrams.net" modified="2024-06-02T13:35:01.974Z" agent="Mozilla/5.0 (Windows NT 10.0; Win64; x64; rv:126.0) Gecko/20100101 Firefox/126.0" etag="4KHpjWLRSjy5oiJePluO" version="24.4.13" type="device">
  <diagram name="Page-1" id="IPIpmYKyVzIDAhs6suU4">
    <mxGraphModel dx="932" dy="1280" grid="1" gridSize="10" guides="1" tooltips="1" connect="1" arrows="1" fold="1" page="1" pageScale="1" pageWidth="827" pageHeight="1169" math="0" shadow="0">
      <root>
        <mxCell id="0" />
        <mxCell id="1" parent="0" />
        <mxCell id="JlKFFNj5FTMACTj_I9c_-14" value="" style="rounded=1;whiteSpace=wrap;html=1;dashed=1;fillColor=#fff2cc;strokeColor=#d6b656;" vertex="1" parent="1">
          <mxGeometry x="556" y="980" width="170" height="180" as="geometry" />
        </mxCell>
        <mxCell id="JlKFFNj5FTMACTj_I9c_-12" value="" style="rounded=1;whiteSpace=wrap;html=1;fillColor=none;dashed=1;" vertex="1" parent="1">
          <mxGeometry x="30" y="652" width="390" height="258" as="geometry" />
        </mxCell>
        <mxCell id="3NMlw_gwiCcfjS7h7Ogy-22" value="" style="rounded=1;whiteSpace=wrap;html=1;dashed=1;fillColor=none;" parent="1" vertex="1">
          <mxGeometry x="20" y="370" width="640" height="110" as="geometry" />
        </mxCell>
        <mxCell id="3NMlw_gwiCcfjS7h7Ogy-3" value="" style="edgeStyle=orthogonalEdgeStyle;rounded=0;orthogonalLoop=1;jettySize=auto;html=1;fillColor=#d5e8d4;strokeColor=#82b366;strokeWidth=2;" parent="1" source="3NMlw_gwiCcfjS7h7Ogy-1" target="3NMlw_gwiCcfjS7h7Ogy-2" edge="1">
          <mxGeometry relative="1" as="geometry" />
        </mxCell>
        <mxCell id="3NMlw_gwiCcfjS7h7Ogy-5" value="" style="edgeStyle=orthogonalEdgeStyle;rounded=0;orthogonalLoop=1;jettySize=auto;html=1;entryX=0.5;entryY=0;entryDx=0;entryDy=0;entryPerimeter=0;fillColor=#f8cecc;strokeColor=#b85450;strokeWidth=2;" parent="1" source="3NMlw_gwiCcfjS7h7Ogy-1" target="3NMlw_gwiCcfjS7h7Ogy-4" edge="1">
          <mxGeometry relative="1" as="geometry" />
        </mxCell>
        <mxCell id="3NMlw_gwiCcfjS7h7Ogy-1" value="&lt;font style=&quot;font-size: 16px;&quot;&gt;ice&lt;/font&gt;" style="strokeWidth=2;html=1;shape=mxgraph.flowchart.decision;whiteSpace=wrap;" parent="1" vertex="1">
          <mxGeometry x="320" y="20" width="100" height="100" as="geometry" />
        </mxCell>
        <mxCell id="3NMlw_gwiCcfjS7h7Ogy-2" value="float_2" style="whiteSpace=wrap;html=1;strokeWidth=2;strokeColor=#6c8ebf;rounded=1;fillColor=#dae8fc;" parent="1" vertex="1">
          <mxGeometry x="60" y="400" width="120" height="60" as="geometry" />
        </mxCell>
        <mxCell id="3NMlw_gwiCcfjS7h7Ogy-9" value="" style="edgeStyle=orthogonalEdgeStyle;rounded=0;orthogonalLoop=1;jettySize=auto;html=1;entryX=0.5;entryY=0;entryDx=0;entryDy=0;entryPerimeter=0;fillColor=#d5e8d4;strokeColor=#82b366;exitX=0;exitY=0.5;exitDx=0;exitDy=0;exitPerimeter=0;strokeWidth=2;" parent="1" target="3NMlw_gwiCcfjS7h7Ogy-8" edge="1">
          <mxGeometry relative="1" as="geometry">
            <mxPoint x="580" y="200" as="sourcePoint" />
          </mxGeometry>
        </mxCell>
        <mxCell id="3NMlw_gwiCcfjS7h7Ogy-11" value="" style="edgeStyle=orthogonalEdgeStyle;rounded=0;orthogonalLoop=1;jettySize=auto;html=1;exitX=1;exitY=0.5;exitDx=0;exitDy=0;exitPerimeter=0;fillColor=#f8cecc;strokeColor=#b85450;strokeWidth=2;" parent="1" source="3NMlw_gwiCcfjS7h7Ogy-4" target="3NMlw_gwiCcfjS7h7Ogy-10" edge="1">
          <mxGeometry relative="1" as="geometry" />
        </mxCell>
        <mxCell id="3NMlw_gwiCcfjS7h7Ogy-4" value="&lt;font style=&quot;font-size: 16px;&quot;&gt;freezing&lt;/font&gt;" style="strokeWidth=2;html=1;shape=mxgraph.flowchart.decision;whiteSpace=wrap;" parent="1" vertex="1">
          <mxGeometry x="570" y="150" width="100" height="100" as="geometry" />
        </mxCell>
        <mxCell id="3NMlw_gwiCcfjS7h7Ogy-13" value="" style="edgeStyle=orthogonalEdgeStyle;rounded=0;orthogonalLoop=1;jettySize=auto;html=1;fillColor=#d5e8d4;strokeColor=#82b366;strokeWidth=2;" parent="1" source="3NMlw_gwiCcfjS7h7Ogy-8" target="3NMlw_gwiCcfjS7h7Ogy-12" edge="1">
          <mxGeometry relative="1" as="geometry" />
        </mxCell>
        <mxCell id="3NMlw_gwiCcfjS7h7Ogy-17" value="" style="edgeStyle=orthogonalEdgeStyle;rounded=0;orthogonalLoop=1;jettySize=auto;html=1;fillColor=#f8cecc;strokeColor=#b85450;strokeWidth=2;" parent="1" source="3NMlw_gwiCcfjS7h7Ogy-8" target="3NMlw_gwiCcfjS7h7Ogy-16" edge="1">
          <mxGeometry relative="1" as="geometry" />
        </mxCell>
        <mxCell id="3NMlw_gwiCcfjS7h7Ogy-8" value="&lt;font style=&quot;font-size: 16px;&quot;&gt;land&lt;/font&gt;" style="strokeWidth=2;html=1;shape=mxgraph.flowchart.decision;whiteSpace=wrap;" parent="1" vertex="1">
          <mxGeometry x="400" y="250" width="100" height="100" as="geometry" />
        </mxCell>
        <mxCell id="3NMlw_gwiCcfjS7h7Ogy-10" value="&lt;div&gt;snow&lt;/div&gt;&lt;div&gt;float_2&lt;br&gt;&lt;/div&gt;" style="whiteSpace=wrap;html=1;strokeWidth=2;rounded=1;fillColor=#e1d5e7;strokeColor=#9673a6;" parent="1" vertex="1">
          <mxGeometry x="690" y="400" width="120" height="60" as="geometry" />
        </mxCell>
        <mxCell id="3NMlw_gwiCcfjS7h7Ogy-12" value="&lt;div&gt;snow&lt;/div&gt;&lt;div&gt;float_2&lt;br&gt;&lt;/div&gt;" style="whiteSpace=wrap;html=1;strokeWidth=2;rounded=1;fillColor=#fa6800;strokeColor=#C73500;fontColor=#000000;align=center;spacingRight=0;" parent="1" vertex="1">
          <mxGeometry x="270" y="400" width="120" height="60" as="geometry" />
        </mxCell>
        <mxCell id="3NMlw_gwiCcfjS7h7Ogy-16" value="X" style="rounded=1;whiteSpace=wrap;html=1;strokeWidth=2;fillColor=#6d8764;strokeColor=#3A5431;fontColor=#ffffff;" parent="1" vertex="1">
          <mxGeometry x="510" y="400" width="120" height="60" as="geometry" />
        </mxCell>
        <mxCell id="3NMlw_gwiCcfjS7h7Ogy-23" value="ice discharge and snow" style="text;html=1;align=center;verticalAlign=middle;whiteSpace=wrap;rounded=0;fillColor=none;strokeColor=none;" parent="1" vertex="1">
          <mxGeometry x="150" y="340" width="140" height="30" as="geometry" />
        </mxCell>
        <mxCell id="3NMlw_gwiCcfjS7h7Ogy-24" value="" style="endArrow=none;html=1;rounded=0;" parent="1" edge="1">
          <mxGeometry width="50" height="50" relative="1" as="geometry">
            <mxPoint x="3" y="513" as="sourcePoint" />
            <mxPoint x="823" y="513" as="targetPoint" />
          </mxGeometry>
        </mxCell>
        <mxCell id="3NMlw_gwiCcfjS7h7Ogy-27" value="" style="edgeStyle=orthogonalEdgeStyle;rounded=0;orthogonalLoop=1;jettySize=auto;html=1;exitX=0;exitY=0.5;exitDx=0;exitDy=0;exitPerimeter=0;fillColor=#f8cecc;strokeColor=#b85450;strokeWidth=2;" parent="1" source="3NMlw_gwiCcfjS7h7Ogy-25" target="JlKFFNj5FTMACTj_I9c_-1" edge="1">
          <mxGeometry relative="1" as="geometry">
            <mxPoint x="120" y="758" as="targetPoint" />
          </mxGeometry>
        </mxCell>
        <mxCell id="3NMlw_gwiCcfjS7h7Ogy-29" value="" style="edgeStyle=orthogonalEdgeStyle;rounded=0;orthogonalLoop=1;jettySize=auto;html=1;exitX=1;exitY=0.5;exitDx=0;exitDy=0;exitPerimeter=0;fillColor=#d5e8d4;strokeColor=#82b366;strokeWidth=2;" parent="1" source="3NMlw_gwiCcfjS7h7Ogy-25" target="3NMlw_gwiCcfjS7h7Ogy-28" edge="1">
          <mxGeometry relative="1" as="geometry" />
        </mxCell>
        <mxCell id="3NMlw_gwiCcfjS7h7Ogy-25" value="&lt;font style=&quot;font-size: 16px;&quot;&gt;land&lt;/font&gt;" style="strokeWidth=2;html=1;shape=mxgraph.flowchart.decision;whiteSpace=wrap;" parent="1" vertex="1">
          <mxGeometry x="340" y="533" width="100" height="100" as="geometry" />
        </mxCell>
        <mxCell id="3NMlw_gwiCcfjS7h7Ogy-31" value="" style="edgeStyle=orthogonalEdgeStyle;rounded=0;orthogonalLoop=1;jettySize=auto;html=1;fillColor=#f8cecc;strokeColor=#b85450;strokeWidth=2;" parent="1" source="3NMlw_gwiCcfjS7h7Ogy-28" target="3NMlw_gwiCcfjS7h7Ogy-30" edge="1">
          <mxGeometry relative="1" as="geometry" />
        </mxCell>
        <mxCell id="3NMlw_gwiCcfjS7h7Ogy-33" value="" style="edgeStyle=orthogonalEdgeStyle;rounded=0;orthogonalLoop=1;jettySize=auto;html=1;exitX=1;exitY=0.5;exitDx=0;exitDy=0;exitPerimeter=0;fillColor=#d5e8d4;strokeColor=#82b366;strokeWidth=2;" parent="1" source="3NMlw_gwiCcfjS7h7Ogy-28" target="3NMlw_gwiCcfjS7h7Ogy-32" edge="1">
          <mxGeometry relative="1" as="geometry" />
        </mxCell>
        <mxCell id="3NMlw_gwiCcfjS7h7Ogy-28" value="&lt;font style=&quot;font-size: 16px;&quot;&gt;&lt;font style=&quot;font-size: 16px;&quot;&gt;ice&lt;/font&gt;&lt;/font&gt;" style="strokeWidth=2;html=1;shape=mxgraph.flowchart.decision;whiteSpace=wrap;" parent="1" vertex="1">
          <mxGeometry x="591" y="634" width="100" height="100" as="geometry" />
        </mxCell>
        <mxCell id="3NMlw_gwiCcfjS7h7Ogy-38" style="edgeStyle=orthogonalEdgeStyle;rounded=0;orthogonalLoop=1;jettySize=auto;html=1;exitX=0.5;exitY=1;exitDx=0;exitDy=0;entryX=0.5;entryY=0;entryDx=0;entryDy=0;strokeWidth=2;" parent="1" source="3NMlw_gwiCcfjS7h7Ogy-30" target="3NMlw_gwiCcfjS7h7Ogy-36" edge="1">
          <mxGeometry relative="1" as="geometry">
            <mxPoint x="455" y="890" as="targetPoint" />
          </mxGeometry>
        </mxCell>
        <mxCell id="3NMlw_gwiCcfjS7h7Ogy-30" value="&lt;div&gt;float_1&lt;div&gt;soil_moisture&lt;br&gt;&lt;/div&gt;&lt;/div&gt;" style="rounded=1;whiteSpace=wrap;html=1;strokeWidth=2;fillColor=#fa6800;strokeColor=#C73500;fontColor=#000000;gradientColor=#E1D5E7;" parent="1" vertex="1">
          <mxGeometry x="461" y="758" width="120" height="60" as="geometry" />
        </mxCell>
        <mxCell id="3NMlw_gwiCcfjS7h7Ogy-39" style="edgeStyle=orthogonalEdgeStyle;rounded=0;orthogonalLoop=1;jettySize=auto;html=1;exitX=0.5;exitY=1;exitDx=0;exitDy=0;strokeWidth=2;entryX=0.5;entryY=0;entryDx=0;entryDy=0;" parent="1" source="3NMlw_gwiCcfjS7h7Ogy-32" edge="1" target="3NMlw_gwiCcfjS7h7Ogy-36">
          <mxGeometry relative="1" as="geometry">
            <mxPoint x="455" y="900" as="targetPoint" />
          </mxGeometry>
        </mxCell>
        <mxCell id="3NMlw_gwiCcfjS7h7Ogy-32" value="&lt;div&gt;float_1&lt;/div&gt;" style="rounded=1;whiteSpace=wrap;html=1;strokeWidth=2;fillColor=#dae8fc;strokeColor=#6c8ebf;" parent="1" vertex="1">
          <mxGeometry x="691" y="758" width="120" height="60" as="geometry" />
        </mxCell>
        <mxCell id="3NMlw_gwiCcfjS7h7Ogy-35" value="lakes" style="text;html=1;align=center;verticalAlign=middle;whiteSpace=wrap;rounded=0;" parent="1" vertex="1">
          <mxGeometry x="150" y="622" width="60" height="30" as="geometry" />
        </mxCell>
        <mxCell id="3NMlw_gwiCcfjS7h7Ogy-41" value="" style="edgeStyle=orthogonalEdgeStyle;rounded=0;orthogonalLoop=1;jettySize=auto;html=1;strokeWidth=3;" parent="1" source="3NMlw_gwiCcfjS7h7Ogy-36" target="3NMlw_gwiCcfjS7h7Ogy-40" edge="1">
          <mxGeometry relative="1" as="geometry" />
        </mxCell>
        <mxCell id="3NMlw_gwiCcfjS7h7Ogy-36" value="apply evaporation" style="rounded=1;whiteSpace=wrap;html=1;absoluteArcSize=1;arcSize=14;strokeWidth=2;" parent="1" vertex="1">
          <mxGeometry x="543" y="900" width="196" height="58" as="geometry" />
        </mxCell>
        <mxCell id="3NMlw_gwiCcfjS7h7Ogy-43" value="" style="edgeStyle=orthogonalEdgeStyle;rounded=0;orthogonalLoop=1;jettySize=auto;html=1;strokeWidth=2;" parent="1" source="3NMlw_gwiCcfjS7h7Ogy-40" target="3NMlw_gwiCcfjS7h7Ogy-42" edge="1">
          <mxGeometry relative="1" as="geometry" />
        </mxCell>
        <mxCell id="3NMlw_gwiCcfjS7h7Ogy-40" value="total elev diff" style="rounded=1;whiteSpace=wrap;html=1;arcSize=14;strokeWidth=2;fillColor=#ffe6cc;strokeColor=#d79b00;" parent="1" vertex="1">
          <mxGeometry x="581" y="994" width="120" height="60" as="geometry" />
        </mxCell>
        <mxCell id="3NMlw_gwiCcfjS7h7Ogy-42" value="float_1" style="rounded=1;whiteSpace=wrap;html=1;fillColor=#ffe6cc;strokeColor=#d79b00;arcSize=14;strokeWidth=2;" parent="1" vertex="1">
          <mxGeometry x="581" y="1089" width="120" height="60" as="geometry" />
        </mxCell>
        <mxCell id="JlKFFNj5FTMACTj_I9c_-3" value="" style="edgeStyle=orthogonalEdgeStyle;rounded=0;orthogonalLoop=1;jettySize=auto;html=1;fillColor=#d5e8d4;strokeColor=#82b366;strokeWidth=2;" edge="1" parent="1" source="JlKFFNj5FTMACTj_I9c_-1" target="JlKFFNj5FTMACTj_I9c_-2">
          <mxGeometry relative="1" as="geometry" />
        </mxCell>
        <mxCell id="JlKFFNj5FTMACTj_I9c_-5" value="" style="edgeStyle=orthogonalEdgeStyle;rounded=0;orthogonalLoop=1;jettySize=auto;html=1;fillColor=#f8cecc;strokeColor=#b85450;strokeWidth=2;" edge="1" parent="1" source="JlKFFNj5FTMACTj_I9c_-1" target="JlKFFNj5FTMACTj_I9c_-4">
          <mxGeometry relative="1" as="geometry" />
        </mxCell>
        <mxCell id="JlKFFNj5FTMACTj_I9c_-1" value="&lt;div&gt;open&lt;/div&gt;&lt;div&gt;lake&lt;br&gt;&lt;/div&gt;" style="rhombus;whiteSpace=wrap;html=1;" vertex="1" parent="1">
          <mxGeometry x="74" y="679" width="80" height="80" as="geometry" />
        </mxCell>
        <mxCell id="JlKFFNj5FTMACTj_I9c_-2" value="&lt;div&gt;body.float_1&lt;/div&gt;&lt;div&gt;body_outlet.float_1&lt;br&gt;&lt;/div&gt;" style="rounded=1;whiteSpace=wrap;html=1;fillColor=#6d8764;fontColor=#ffffff;strokeColor=#3A5431;gradientColor=#E1D5E7;align=right;spacingRight=6;" vertex="1" parent="1">
          <mxGeometry x="54" y="832" width="120" height="60" as="geometry" />
        </mxCell>
        <mxCell id="JlKFFNj5FTMACTj_I9c_-9" value="" style="edgeStyle=orthogonalEdgeStyle;rounded=0;orthogonalLoop=1;jettySize=auto;html=1;fillColor=#d5e8d4;strokeColor=#82b366;strokeWidth=2;" edge="1" parent="1" source="JlKFFNj5FTMACTj_I9c_-4" target="JlKFFNj5FTMACTj_I9c_-8">
          <mxGeometry relative="1" as="geometry" />
        </mxCell>
        <mxCell id="JlKFFNj5FTMACTj_I9c_-4" value="salt / fresh&lt;br&gt;&lt;div&gt;lake&lt;/div&gt;" style="rhombus;whiteSpace=wrap;html=1;" vertex="1" parent="1">
          <mxGeometry x="229" y="679" width="80" height="80" as="geometry" />
        </mxCell>
        <mxCell id="JlKFFNj5FTMACTj_I9c_-8" value="body.float_1" style="rounded=1;whiteSpace=wrap;html=1;fillColor=#6d8764;fontColor=#ffffff;strokeColor=#3A5431;gradientColor=#E1D5E7;" vertex="1" parent="1">
          <mxGeometry x="209" y="832" width="120" height="60" as="geometry" />
        </mxCell>
        <mxCell id="JlKFFNj5FTMACTj_I9c_-13" value="" style="edgeStyle=orthogonalEdgeStyle;rounded=0;orthogonalLoop=1;jettySize=auto;html=1;fillColor=#f8cecc;strokeColor=#b85450;strokeWidth=2;entryDx=0;entryDy=0;entryPerimeter=0;exitX=0.963;exitY=0.5;exitDx=0;exitDy=0;exitPerimeter=0;entryX=0.5;entryY=0;" edge="1" parent="1" source="JlKFFNj5FTMACTj_I9c_-4" target="JlKFFNj5FTMACTj_I9c_-15">
          <mxGeometry relative="1" as="geometry">
            <mxPoint x="311" y="719" as="sourcePoint" />
            <mxPoint x="388" y="840" as="targetPoint" />
          </mxGeometry>
        </mxCell>
        <mxCell id="JlKFFNj5FTMACTj_I9c_-15" value="" style="strokeWidth=2;html=1;shape=mxgraph.flowchart.terminator;whiteSpace=wrap;fillColor=#6d8764;fontColor=#ffffff;strokeColor=#3A5431;gradientColor=#E1D5E7;" vertex="1" parent="1">
          <mxGeometry x="360" y="847" width="40" height="30" as="geometry" />
        </mxCell>
      </root>
    </mxGraphModel>
  </diagram>
</mxfile>
